#!OML:ASF F:\twosubjects\two\Thursday\Session 1\Rory.ASF
:FULLY-SPECIFIED
:DEGREES
360
root 6.80705 10.6676 11.4805 139.489 -34.888 208.379
lowerback 39.4749 11.2126 -13.0732
upperback 16.5403 3.55507 -4.26861
thorax -0.934204 -0.988603 0.75377
lowerneck -1.88822 -16.8436 -16.0728
upperneck 0.840512 -25.6949 32.1531
head 7.37964 -13.1935 9.95908
rclavicle -5.08889e-014 -5.08889e-014
rhumerus -25.3837 -14.1533 -69.6192
rradius 142.226
rwrist 18.7429
rhand -43.313 61.0971
rfingers 7.12502
rthumb -16.1597 31.7507
lclavicle -5.08889e-014 -5.08889e-014
lhumerus -21.6798 -9.33676 77.3793
lradius 136.89
lwrist -20.8618
lhand -34.2726 31.8562
lfingers 7.12502
lthumb -7.44272 61.7052
rfemur -30.6558 -1.77989 -4.21954
rtibia 54.4744
rfoot 10.3762 -14.3175
rtoes 11.9325
lfemur -75.4065 25.7595 -22.9295
ltibia 85.2034
lfoot -7.23645 16.9851
ltoes 46.9788
361
root 6.8135 10.6564 11.4749 139.215 -34.9903 208.79
lowerback 40.0247 10.4683 -12.002
upperback 16.0285 3.00131 -4.79803
thorax -1.59124 -1.0618 -0.117252
lowerneck -1.44289 -16.6931 -16.0156
upperneck 1.21392 -25.5948 31.9713
head 7.34504 -13.1552 9.96712
rclavicle 1.90833e-014 -1.90833e-014
rhumerus -25.88 -13.6993 -70.4669
rradius 142.168
rwrist 18.9223
rhand -43.0954 61.7886
rfingers 7.12502
rthumb -15.9503 32.4253
lclavicle 1.90833e-014 -1.90833e-014
lhumerus -22.5598 -10.6728 77.2887
lradius 137.042
lwrist -20.8301
lhand -34.1359 30.2259
lfingers 7.12502
lthumb -7.31077 60.0796
rfemur -30.673 -2.0071 -3.91415
rtibia 54.6673
rfoot 10.7585 -13.9757
rtoes 10.5964
lfemur -75.4268 25.5259 -22.7837
ltibia 85.2118
lfoot -7.1125 17.0324
ltoes 46.0099
362
root 6.82362 10.6388 11.4663 139.075 -35.1801 208.644
lowerback 39.9108 10.4741 -12.0875
upperback 16.1556 3.03163 -4.53648
thorax -1.4332 -1.07885 0.192392
lowerneck -1.55331 -16.7102 -16.6771
upperneck 1.22049 -25.5811 32.0629
head 7.47717 -13.1243 10.0837
rclavicle 3.18055e-014 4.77083e-014
rhumerus -25.5045 -13.5854 -70.1209
rradius 142.088
rwrist 18.6479
rhand -42.8671 62.3036
rfingers 7.12502
rthumb -15.7304 32.9229
lclavicle 3.18055e-014 4.77083e-014
lhumerus -22.4997 -11.8151 78.2427
lradius 137.064
lwrist -20.9207
lhand -33.3888 28.7732
lfingers 7.12502
lthumb -6.58953 58.6507
rfemur -30.722 -2.04052 -4.06276
rtibia 54.951
rfoot 11.4666 -13.4112
rtoes 8.78099
lfemur -75.2197 25.272 -22.7724
ltibia 85.2968
lfoot -7.22673 17.1979
ltoes 46.0688
363
root 6.83629 10.6477 11.4809 138.946 -35.1208 208.291
lowerback 39.5783 10.8074 -12.433
upperback 16.4452 3.35838 -4.19832
thorax -1.05764 -1.01454 0.601843
lowerneck -1.94766 -16.791 -16.8773
upperneck 1.35066 -25.6476 31.9707
head 7.61769 -13.0995 10.024
rclavicle -1.17681e-013 -9.54166e-014
rhumerus -25.0251 -13.6097 -69.8897
rradius 142.021
rwrist 18.5124
rhand -42.53 62.895
rfingers 7.12502
rthumb -15.4057 33.4891
lclavicle -1.17681e-013 -9.54166e-014
lhumerus -22.2267 -13.1344 79.0309
lradius 137.077
lwrist -20.9744
lhand -32.7568 28.3439
lfingers 7.12502
lthumb -5.97939 58.2395
rfemur -30.6551 -1.71304 -4.12239
rtibia 55.0237
rfoot 11.6615 -13.4676
rtoes 8.72352
lfemur -74.7439 25.5731 -22.8234
ltibia 85.2029
lfoot -7.23489 17.1379
ltoes 46.1461
364
root 6.84676 10.6357 11.4637 138.666 -35.0769 208.135
lowerback 39.8003 10.8848 -12.3971
upperback 16.2554 3.43881 -4.19594
thorax -1.33556 -0.946476 0.552045
lowerneck -1.71966 -16.7084 -16.9127
upperneck 1.69074 -25.6278 31.8861
head 7.66542 -13.0808 10.0357
rclavicle -9.54166e-015 3.81667e-014
rhumerus -25.3986 -13.3174 -70.1526
rradius 142.089
rwrist 18.5573
rhand -42.0936 63.2738
rfingers 7.12502
rthumb -14.9853 33.836
lclavicle -9.54166e-015 3.81667e-014
lhumerus -22.8821 -14.6276 79.3934
lradius 137.122
lwrist -20.8913
lhand -33.1776 26.6505
lfingers 7.12502
lthumb -6.3857 56.5343
rfemur -30.5048 -1.51393 -4.09372
rtibia 55.2162
rfoot 11.3292 -13.7164
rtoes 9.15531
lfemur -74.3539 25.7429 -22.6573
ltibia 85.2536
lfoot -7.18928 17.1039
ltoes 46.1604
365
root 6.85631 10.6454 11.4794 138.313 -35.344 208.016
lowerback 39.8314 11.0508 -12.617
upperback 16.3506 3.57608 -3.88983
thorax -1.26782 -0.923337 0.926319
lowerneck -1.3404 -16.6639 -17.2122
upperneck 1.38614 -25.5471 32.08
head 7.56146 -13.0913 10.2012
rclavicle -4.13472e-014 -2.8625e-014
rhumerus -25.3108 -13.2063 -69.9558
rradius 142.05
rwrist 18.4434
rhand -41.6011 63.0266
rfingers 7.12502
rthumb -14.5108 33.5541
lclavicle -4.13472e-014 -2.8625e-014
lhumerus -22.978 -15.8992 80.0256
lradius 137.154
lwrist -20.5874
lhand -32.5327 25.4202
lfingers 7.12502
lthumb -5.76307 55.3218
rfemur -30.0841 -1.54475 -4.28036
rtibia 55.3157
rfoot 11.1938 -13.6787
rtoes 9.2585
lfemur -73.7321 25.7775 -22.8542
ltibia 85.1082
lfoot -7.47603 17.1371
ltoes 46.3528
366
root 6.86683 10.6308 11.4665 138.322 -35.8008 207.646
lowerback 39.8247 11.2933 -13.1543
upperback 16.4195 3.68191 -3.6717
thorax -1.21389 -0.926449 1.36716
lowerneck -1.19477 -16.7134 -16.9641
upperneck 0.986695 -25.5199 32.0014
head 7.35256 -13.1123 10.1537
rclavicle 1.90833e-013 9.54166e-015
rhumerus -25.0661 -13.3209 -69.8177
rradius 141.921
rwrist 18.3211
rhand -41.2737 62.9234
rfingers 7.12502
rthumb -14.1953 33.4285
lclavicle 1.90833e-013 9.54166e-015
lhumerus -22.7752 -17.1605 80.4123
lradius 137.089
lwrist -20.2725
lhand -31.7175 25.4043
lfingers 7.12502
lthumb -4.97597 55.3259
rfemur -30.039 -1.63561 -4.80993
rtibia 55.6128
rfoot 11.4832 -13.2482
rtoes 8.09166
lfemur -73.5123 25.4819 -23.2196
ltibia 85.1578
lfoot -7.77925 17.3776
ltoes 46.4877
367
root 6.87914 10.6096 11.4338 138.717 -36.097 206.926
lowerback 40.3952 11.1832 -13.1898
upperback 15.9368 3.36187 -4.35203
thorax -1.83859 -0.979661 0.759814
lowerneck -1.19293 -16.6193 -16.4308
upperneck 1.45843 -25.547 31.8819
head 7.40462 -13.1072 10.0396
rclavicle 6.04305e-014 -3.18055e-014
rhumerus -25.5979 -13.2143 -70.7552
rradius 141.962
rwrist 18.4508
rhand -41.3016 63.5823
rfingers 7.12502
rthumb -14.2223 34.0893
lclavicle 6.04305e-014 -3.18055e-014
lhumerus -23.2731 -18.5464 79.9213
lradius 137.007
lwrist -19.9183
lhand -31.7687 24.3105
lfingers 7.12502
lthumb -5.02536 54.2309
rfemur -30.3462 -1.52841 -5.44268
rtibia 55.8468
rfoot 11.95 -12.8645
rtoes 7.23334
lfemur -73.7349 25.8753 -23.9879
ltibia 85.2505
lfoot -7.61458 17.0802
ltoes 46.1382
368
root 6.88311 10.6067 11.4294 138.966 -36.1311 206.73
lowerback 39.7517 11.2046 -13.3671
upperback 16.0871 3.51467 -4.1482
thorax -1.51691 -0.934025 1.02987
lowerneck -1.41423 -16.5761 -17.0608
upperneck 1.55555 -25.5485 32.2543
head 7.63939 -13.0841 10.2388
rclavicle -3.49861e-014 -3.18055e-014
rhumerus -25.4607 -13.1413 -70.5947
rradius 141.962
rwrist 18.3595
rhand -41.5109 64.2524
rfingers 7.12502
rthumb -14.4239 34.7736
lclavicle -3.49861e-014 -3.18055e-014
lhumerus -23.0923 -19.5438 80.5612
lradius 136.852
lwrist -19.9307
lhand -31.159 23.5981
lfingers 7.12502
lthumb -4.43672 53.5316
rfemur -30.7235 -1.51594 -5.51777
rtibia 56.1676
rfoot 11.9136 -12.9806
rtoes 8.82107
lfemur -73.9631 25.8657 -24.1248
ltibia 85.3625
lfoot -7.64443 16.9884
ltoes 46.7707
369
root 6.88871 10.636 11.4784 138.909 -36.0365 207.226
lowerback 39.2598 10.773 -12.6694
upperback 16.114 3.42514 -4.23783
thorax -1.33368 -0.90831 0.66819
lowerneck -1.54926 -16.4263 -17.1117
upperneck 1.77763 -25.489 32.5914
head 7.79161 -13.0457 10.3752
rclavicle -1.27222e-014 -4.45278e-014
rhumerus -25.4609 -13.1311 -70.9838
rradius 141.906
rwrist 18.3884
rhand -41.4743 64.2035
rfingers 7.12502
rthumb -14.3887 34.7222
lclavicle -1.27222e-014 -4.45278e-014
lhumerus -23.1246 -20.5849 80.6427
lradius 136.74
lwrist -20.2763
lhand -30.1997 24.0867
lfingers 7.12502
lthumb -3.51031 54.0376
rfemur -30.8651 -1.58911 -4.93588
rtibia 56.1984
rfoot 11.5718 -13.472
rtoes 9.51298
lfemur -74.2859 25.8362 -23.9431
ltibia 85.2523
lfoot -7.72164 16.6982
ltoes 47.7989
370
root 6.8956 10.5865 11.4409 138.602 -35.7771 207.855
lowerback 39.2289 10.3885 -11.8162
upperback 15.9916 3.34231 -4.28874
thorax -1.44779 -0.858313 0.249118
lowerneck -1.69279 -16.4343 -16.6574
upperneck 2.13848 -25.5382 32.2525
head 7.81065 -13.0255 10.1698
rclavicle -3.18055e-014 -4.45278e-014
rhumerus -25.4868 -13.1318 -71.3321
rradius 141.86
rwrist 18.5149
rhand -41.2763 63.698
rfingers 7.12502
rthumb -14.1979 34.2032
lclavicle -3.18055e-014 -4.45278e-014
lhumerus -23.2772 -21.6076 80.7638
lradius 136.538
lwrist -20.3625
lhand -29.4769 23.8483
lfingers 7.12502
lthumb -2.81226 53.8095
rfemur -31.157 -1.61853 -4.22353
rtibia 56.5557
rfoot 11.3889 -13.5438
rtoes 8.50725
lfemur -74.662 25.7124 -23.4308
ltibia 85.4053
lfoot -7.12845 16.8206
ltoes 46.7515
371
root 6.90768 10.5833 11.4579 138.921 -36.7033 206.903
lowerback 39.2955 10.6265 -12.7399
upperback 16.0123 3.27126 -4.22655
thorax -1.44544 -0.952795 0.770373
lowerneck -1.52858 -16.5767 -16.3495
upperneck 1.98925 -25.5763 31.6992
head 7.59082 -13.0415 9.93402
rclavicle 9.54166e-014 1.17681e-013
rhumerus -25.5164 -13.0607 -71.0838
rradius 141.819
rwrist 18.5561
rhand -41.3519 63.4965
rfingers 7.12502
rthumb -14.2707 34.0068
lclavicle 9.54166e-014 1.17681e-013
lhumerus -23.1966 -22.492 81.356
lradius 136.306
lwrist -20.0137
lhand -29.1538 23.5264
lfingers 7.12502
lthumb -2.50028 53.4915
rfemur -30.9795 -2.1734 -5.47976
rtibia 56.635
rfoot 11.8746 -12.9851
rtoes 7.35863
lfemur -74.1347 25.4695 -24.7693
ltibia 85.1802
lfoot -7.08192 17.0309
ltoes 46.211
372
root 6.91618 10.5705 11.4509 138.938 -37.0247 206.85
lowerback 38.9551 10.6111 -12.9309
upperback 16.0596 3.32879 -3.97162
thorax -1.31383 -0.935423 1.12484
lowerneck -0.883718 -16.7794 -15.7818
upperneck 1.315 -25.5504 30.9095
head 7.02698 -13.0949 9.64726
rclavicle -9.85972e-014 -9.54166e-014
rhumerus -25.5857 -12.968 -70.7595
rradius 141.7
rwrist 18.5744
rhand -41.6268 63.6032
rfingers 7.12502
rthumb -14.5356 34.1325
lclavicle -9.85972e-014 -9.54166e-014
lhumerus -23.0609 -23.3827 81.938
lradius 136.055
lwrist -20.0349
lhand -29.2745 23.3043
lfingers 7.12502
lthumb -2.61684 53.2679
rfemur -31.0791 -2.42522 -5.69116
rtibia 56.9623
rfoot 11.9646 -12.8738
rtoes 7.03547
lfemur -74.1765 25.041 -24.8587
ltibia 85.2805
lfoot -7.1983 17.173
ltoes 46.7429
373
root 6.92459 10.5727 11.4579 138.522 -36.6433 207.258
lowerback 38.8408 10.3949 -12.2425
upperback 16.0457 3.38065 -3.91965
thorax -1.30053 -0.861836 0.844953
lowerneck -0.795196 -16.5454 -16.4499
upperneck 1.45416 -25.4311 31.6539
head 7.25927 -13.0567 10.0367
rclavicle -3.49861e-014 -5.08889e-014
rhumerus -25.6362 -12.925 -70.8607
rradius 141.552
rwrist 18.7407
rhand -41.8511 63.8058
rfingers 7.12502
rthumb -14.7517 34.3507
lclavicle -3.49861e-014 -5.08889e-014
lhumerus -23.1763 -24.3045 82.1341
lradius 135.976
lwrist -19.9018
lhand -28.9886 22.2494
lfingers 7.12502
lthumb -2.34067 52.2163
rfemur -30.9911 -1.8103 -5.0216
rtibia 57.1052
rfoot 11.6524 -13.1852
rtoes 7.26248
lfemur -74.3121 25.4942 -24.2455
ltibia 85.3929
lfoot -7.29662 16.5353
ltoes 47.9613
